<svg xmlns="http://www.w3.org/2000/svg" viewBox="0 0 160 130" role="img" aria-label="Ferris, a friendly orange crab mascot">
  <title>Ferris the Crab</title>
  <!-- legs -->
  <g fill="#e76f3c" stroke="#c2410c" stroke-width="2" stroke-linecap="round">
    <path d="M 30 90 Q 20 105 12 95" />
    <path d="M 38 98 Q 32 115 20 112" />
    <path d="M 52 105 Q 52 122 42 125" />
    <path d="M 108 105 Q 108 122 118 125" />
    <path d="M 122 98 Q 128 115 140 112" />
    <path d="M 130 90 Q 140 105 148 95" />
  </g>
  <!-- body -->
  <ellipse cx="80" cy="75" rx="52" ry="36" fill="#f4a261" stroke="#c2410c" stroke-width="2.5" />
  <!-- shell highlight -->
  <ellipse cx="66" cy="62" rx="16" ry="9" fill="rgba(255,236,210,0.55)" />
  <!-- claws -->
  <g fill="#f4a261" stroke="#c2410c" stroke-width="2.5" stroke-linejoin="round">
    <!-- left claw arm -->
    <path d="M 30 68 Q 14 58 10 42" fill="none" stroke-width="7" stroke-linecap="round" />
    <path d="M 10 42 q -6 -4 -6 -12 q 0 -8 8 -8 q 8 0 12 8 q 2 4 -2 8 q 4 6 0 12 q -4 4 -12 -8 z" />
    <!-- right claw arm -->
    <path d="M 130 68 Q 146 58 150 42" fill="none" stroke-width="7" stroke-linecap="round" />
    <path d="M 150 42 q 6 -4 6 -12 q 0 -8 -8 -8 q -8 0 -12 8 q -2 4 2 8 q -4 6 0 12 q 4 4 12 -8 z" />
  </g>
  <!-- eye stalks -->
  <g stroke="#c2410c" stroke-width="2.5" stroke-linecap="round">
    <line x1="68" y1="50" x2="64" y2="36" />
    <line x1="92" y1="50" x2="96" y2="36" />
  </g>
  <!-- eyes -->
  <circle cx="64" cy="34" r="7" fill="#fff" stroke="#c2410c" stroke-width="2.5" />
  <circle cx="96" cy="34" r="7" fill="#fff" stroke="#c2410c" stroke-width="2.5" />
  <circle cx="65" cy="34" r="3" fill="#1a1a2e" />
  <circle cx="97" cy="34" r="3" fill="#1a1a2e" />
  <!-- smile -->
  <path d="M 70 80 Q 80 88 90 80" fill="none" stroke="#c2410c" stroke-width="2.5" stroke-linecap="round" />
</svg>
